<svg xmlns="http://www.w3.org/2000/svg" viewBox="0 0 64 64" role="img" aria-label="S logo">
  <defs>
    <linearGradient id="g" x1="0" x2="1" y1="0" y2="1">
      <stop offset="0%" stop-color="#0ea5e9"/>
      <stop offset="100%" stop-color="#22c55e"/>
    </linearGradient>
  </defs>
  <rect width="64" height="64" rx="14" fill="#0b1220"/>
  <path d="M44.8 20.7c-2.2-2-5.7-3.2-10.6-3.2-6.8 0-11.5 3.3-11.5 8.3 0 5.2 3.6 7.2 9.4 8.4l3.1.6c3.7.7 5.3 1.6 5.3 3.6 0 2.2-2.2 3.5-6.4 3.5-4.1 0-7.5-1.3-10-3.8l-3.9 4.1c3 3.3 7.8 5 13.7 5 8.1 0 12.9-3.4 12.9-9 0-5.5-3.6-7.6-9.8-8.8l-3.1-.6c-3.4-.7-4.9-1.5-4.9-3.3 0-2.1 1.9-3.3 5.8-3.3 3.5 0 6.2 1 8.1 2.8l3.9-4.3z" fill="url(#g)"/>
</svg>
